<svg xmlns="http://www.w3.org/2000/svg" version="1.1" xmlns:xlink="http://www.w3.org/1999/xlink" xmlns:svgjs="http://svgjs.dev/svgjs" width="1080" height="2400" preserveAspectRatio="none" viewBox="0 0 1080 2400"><g mask="url(&quot;#SvgjsMask1070&quot;)" fill="none"><rect width="1080" height="2400" x="0" y="0" fill="rgba(244, 244, 244, 1)"></rect><path d="M0,964.783C173.361,925.952,285.4,771.347,425.549,662.167C551.313,564.194,704.734,496.688,780.752,356.557C859.285,211.79,852.923,42.31,851.146,-122.376C849.124,-309.704,879.135,-514.897,769.705,-666.953C658.144,-821.969,462.7,-913.852,272.16,-926.891C94.16,-939.072,-49.623,-799.749,-215.634,-734.384C-363.519,-676.156,-544.338,-681.942,-650.455,-563.623C-756.983,-444.845,-763.8,-270.542,-774.419,-111.345C-784.387,38.099,-739.963,177.414,-709.668,324.094C-669.877,516.752,-714.684,753.031,-568.664,884.858C-423.645,1015.781,-190.651,1007.486,0,964.783" fill="#dcdcdc"></path><path d="M1080 2871.858C1183.989 2880.574 1290.041 2916.5879999999997 1386.674 2877.194 1490.766 2834.758 1596.508 2757.805 1625.9070000000002 2649.307 1655.0729999999999 2541.668 1557.16 2443.788 1533.6480000000001 2334.775 1512.37 2236.119 1539.52 2131.108 1494.645 2040.708 1442.188 1935.033 1367.818 1834.1100000000001 1260.6390000000001 1784.799 1146.908 1732.473 1010.363 1719.7530000000002 893.26 1764.021 778.9639999999999 1807.228 709.937 1918.636 640.5450000000001 2019.21 577.5840000000001 2110.463 533.436 2209.624 510.913 2318.178 487.178 2432.575 448.976 2560.306 507.27 2661.557 565.159 2762.104 695.764 2788.424 804.675 2828.415 893.6949999999999 2861.102 985.5 2863.938 1080 2871.858" fill="#ffffff"></path></g><defs><mask id="SvgjsMask1070"><rect width="1080" height="2400" fill="#ffffff"></rect></mask></defs></svg>